<mxfile host="65bd71144e">
    <diagram id="GzFnTKlFNLaCr_bVXgo0" name="Page-1">
        <mxGraphModel dx="778" dy="861" grid="1" gridSize="10" guides="1" tooltips="1" connect="1" arrows="1" fold="1" page="1" pageScale="1" pageWidth="827" pageHeight="1169" math="0" shadow="0">
            <root>
                <mxCell id="0"/>
                <mxCell id="1" parent="0"/>
                <mxCell id="2" value="&lt;div style=&quot;color: rgb(248, 248, 242); background-color: rgb(40, 42, 54); font-family: &amp;quot;Droid Sans Mono&amp;quot;, &amp;quot;monospace&amp;quot;, monospace; font-weight: normal; font-size: 14px; line-height: 19px;&quot;&gt;&lt;div&gt;&lt;span style=&quot;color: #f8f8f2;&quot;&gt;  {&lt;/span&gt;&lt;/div&gt;&lt;div&gt;&lt;span style=&quot;color: #f8f8f2;&quot;&gt;    &lt;/span&gt;&lt;span style=&quot;color: #fede5d;&quot;&gt;body&lt;/span&gt;&lt;span style=&quot;color: #f8f8f2;&quot;&gt;: &lt;/span&gt;&lt;span style=&quot;color: #f8f8f2;&quot;&gt;&quot;&lt;/span&gt;&lt;span style=&quot;color: #50fa7b;&quot;&gt;Oh, I've got compassion running out of my nose, pal! I'm the Sultan of Sentiment!&lt;/span&gt;&lt;span style=&quot;color: #f8f8f2;&quot;&gt;&quot;&lt;/span&gt;&lt;span style=&quot;color: #f8f8f2;&quot;&gt;,&lt;/span&gt;&lt;/div&gt;&lt;div&gt;&lt;span style=&quot;color: #f8f8f2;&quot;&gt;    &lt;/span&gt;&lt;span style=&quot;color: #fede5d;&quot;&gt;votes&lt;/span&gt;&lt;span style=&quot;color: #f8f8f2;&quot;&gt;: &lt;/span&gt;&lt;span style=&quot;color: #ff79c6;&quot;&gt;16&lt;/span&gt;&lt;span style=&quot;color: #f8f8f2;&quot;&gt;,&lt;/span&gt;&lt;/div&gt;&lt;div&gt;&lt;span style=&quot;color: #f8f8f2;&quot;&gt;    &lt;/span&gt;&lt;span style=&quot;color: #fede5d;&quot;&gt;author&lt;/span&gt;&lt;span style=&quot;color: #f8f8f2;&quot;&gt;: &lt;/span&gt;&lt;span style=&quot;color: #f8f8f2;&quot;&gt;&quot;&lt;/span&gt;&lt;span style=&quot;color: #50fa7b;&quot;&gt;butter_bridge&lt;/span&gt;&lt;span style=&quot;color: #f8f8f2;&quot;&gt;&quot;&lt;/span&gt;&lt;span style=&quot;color: #f8f8f2;&quot;&gt;,&lt;/span&gt;&lt;/div&gt;&lt;div&gt;&lt;span style=&quot;color: #f8f8f2;&quot;&gt;    &lt;/span&gt;&lt;span style=&quot;color: #fede5d;&quot;&gt;article_id&lt;/span&gt;&lt;span style=&quot;color: #f8f8f2;&quot;&gt;: &lt;/span&gt;&lt;span style=&quot;color: #ff79c6;&quot;&gt;9&lt;/span&gt;&lt;span style=&quot;color: #f8f8f2;&quot;&gt;,&lt;/span&gt;&lt;/div&gt;&lt;div&gt;&lt;span style=&quot;color: #f8f8f2;&quot;&gt;    &lt;/span&gt;&lt;span style=&quot;color: #fede5d;&quot;&gt;created_at&lt;/span&gt;&lt;span style=&quot;color: #f8f8f2;&quot;&gt;: &lt;/span&gt;&lt;span style=&quot;color: #ff79c6;&quot;&gt;1586179020000&lt;/span&gt;&lt;span style=&quot;color: #f8f8f2;&quot;&gt;,&lt;/span&gt;&lt;/div&gt;&lt;div&gt;&lt;span style=&quot;color: #f8f8f2;&quot;&gt;  },&lt;/span&gt;&lt;/div&gt;&lt;/div&gt;" style="text;whiteSpace=wrap;html=1;" vertex="1" parent="1">
                    <mxGeometry x="50" y="80" width="560" height="180" as="geometry"/>
                </mxCell>
                <mxCell id="3" value="&lt;div style=&quot;color: rgb(248, 248, 242); background-color: rgb(40, 42, 54); font-family: &amp;quot;Droid Sans Mono&amp;quot;, &amp;quot;monospace&amp;quot;, monospace; font-weight: normal; font-size: 14px; line-height: 19px;&quot;&gt;&lt;div&gt;&lt;span style=&quot;color: #f8f8f2;&quot;&gt;  {&lt;/span&gt;&lt;/div&gt;&lt;div&gt;&lt;span style=&quot;color: #f8f8f2;&quot;&gt;    &lt;/span&gt;&lt;span style=&quot;color: #fede5d;&quot;&gt;title&lt;/span&gt;&lt;span style=&quot;color: #f8f8f2;&quot;&gt;: &lt;/span&gt;&lt;span style=&quot;color: #f8f8f2;&quot;&gt;&quot;&lt;/span&gt;&lt;span style=&quot;color: #50fa7b;&quot;&gt;Living in the shadow of a great man&lt;/span&gt;&lt;span style=&quot;color: #f8f8f2;&quot;&gt;&quot;&lt;/span&gt;&lt;span style=&quot;color: #f8f8f2;&quot;&gt;,&lt;/span&gt;&lt;/div&gt;&lt;div&gt;&lt;span style=&quot;color: #f8f8f2;&quot;&gt;    &lt;/span&gt;&lt;span style=&quot;color: #fede5d;&quot;&gt;topic&lt;/span&gt;&lt;span style=&quot;color: #f8f8f2;&quot;&gt;: &lt;/span&gt;&lt;span style=&quot;color: #f8f8f2;&quot;&gt;&quot;&lt;/span&gt;&lt;span style=&quot;color: #50fa7b;&quot;&gt;mitch&lt;/span&gt;&lt;span style=&quot;color: #f8f8f2;&quot;&gt;&quot;&lt;/span&gt;&lt;span style=&quot;color: #f8f8f2;&quot;&gt;,&lt;/span&gt;&lt;/div&gt;&lt;div&gt;&lt;span style=&quot;color: #f8f8f2;&quot;&gt;    &lt;/span&gt;&lt;span style=&quot;color: #fede5d;&quot;&gt;author&lt;/span&gt;&lt;span style=&quot;color: #f8f8f2;&quot;&gt;: &lt;/span&gt;&lt;span style=&quot;color: #f8f8f2;&quot;&gt;&quot;&lt;/span&gt;&lt;span style=&quot;color: #50fa7b;&quot;&gt;butter_bridge&lt;/span&gt;&lt;span style=&quot;color: #f8f8f2;&quot;&gt;&quot;&lt;/span&gt;&lt;span style=&quot;color: #f8f8f2;&quot;&gt;,&lt;/span&gt;&lt;/div&gt;&lt;div&gt;&lt;span style=&quot;color: #f8f8f2;&quot;&gt;    &lt;/span&gt;&lt;span style=&quot;color: #fede5d;&quot;&gt;body&lt;/span&gt;&lt;span style=&quot;color: #f8f8f2;&quot;&gt;: &lt;/span&gt;&lt;span style=&quot;color: #f8f8f2;&quot;&gt;&quot;&lt;/span&gt;&lt;span style=&quot;color: #50fa7b;&quot;&gt;I find this existence challenging&lt;/span&gt;&lt;span style=&quot;color: #f8f8f2;&quot;&gt;&quot;&lt;/span&gt;&lt;span style=&quot;color: #f8f8f2;&quot;&gt;,&lt;/span&gt;&lt;/div&gt;&lt;div&gt;&lt;span style=&quot;color: #f8f8f2;&quot;&gt;    &lt;/span&gt;&lt;span style=&quot;color: #fede5d;&quot;&gt;created_at&lt;/span&gt;&lt;span style=&quot;color: #f8f8f2;&quot;&gt;: &lt;/span&gt;&lt;span style=&quot;color: #ff79c6;&quot;&gt;1594329060000&lt;/span&gt;&lt;span style=&quot;color: #f8f8f2;&quot;&gt;,&lt;/span&gt;&lt;/div&gt;&lt;div&gt;&lt;span style=&quot;color: #f8f8f2;&quot;&gt;    &lt;/span&gt;&lt;span style=&quot;color: #fede5d;&quot;&gt;votes&lt;/span&gt;&lt;span style=&quot;color: #f8f8f2;&quot;&gt;: &lt;/span&gt;&lt;span style=&quot;color: #ff79c6;&quot;&gt;100&lt;/span&gt;&lt;span style=&quot;color: #f8f8f2;&quot;&gt;,&lt;/span&gt;&lt;/div&gt;&lt;div&gt;&lt;span style=&quot;color: #f8f8f2;&quot;&gt;    &lt;/span&gt;&lt;span style=&quot;color: #fede5d;&quot;&gt;article_img_url&lt;/span&gt;&lt;span style=&quot;color: #f8f8f2;&quot;&gt;:&lt;/span&gt;&lt;/div&gt;&lt;div&gt;&lt;span style=&quot;color: #f8f8f2;&quot;&gt;      &lt;/span&gt;&lt;span style=&quot;color: #f8f8f2;&quot;&gt;&quot;&lt;/span&gt;&lt;span style=&quot;color: #50fa7b;&quot;&gt;https://images.pexels.com/photos/158651/news-newsletter-newspaper-information-158651.jpeg?w=700&amp;amp;h=700&lt;/span&gt;&lt;span style=&quot;color: #f8f8f2;&quot;&gt;&quot;&lt;/span&gt;&lt;span style=&quot;color: #f8f8f2;&quot;&gt;,&lt;/span&gt;&lt;/div&gt;&lt;div&gt;&lt;span style=&quot;color: #f8f8f2;&quot;&gt;  },&lt;/span&gt;&lt;/div&gt;&lt;div&gt;&lt;span style=&quot;color: #f8f8f2;&quot;&gt;  {&lt;/span&gt;&lt;/div&gt;&lt;div&gt;&lt;span style=&quot;color: #f8f8f2;&quot;&gt;    &lt;/span&gt;&lt;span style=&quot;color: #fede5d;&quot;&gt;title&lt;/span&gt;&lt;span style=&quot;color: #f8f8f2;&quot;&gt;: &lt;/span&gt;&lt;span style=&quot;color: #f8f8f2;&quot;&gt;&quot;&lt;/span&gt;&lt;span style=&quot;color: #50fa7b;&quot;&gt;Sony Vaio; or, The Laptop&lt;/span&gt;&lt;span style=&quot;color: #f8f8f2;&quot;&gt;&quot;&lt;/span&gt;&lt;span style=&quot;color: #f8f8f2;&quot;&gt;,&lt;/span&gt;&lt;/div&gt;&lt;div&gt;&lt;span style=&quot;color: #f8f8f2;&quot;&gt;    &lt;/span&gt;&lt;span style=&quot;color: #fede5d;&quot;&gt;topic&lt;/span&gt;&lt;span style=&quot;color: #f8f8f2;&quot;&gt;: &lt;/span&gt;&lt;span style=&quot;color: #f8f8f2;&quot;&gt;&quot;&lt;/span&gt;&lt;span style=&quot;color: #50fa7b;&quot;&gt;mitch&lt;/span&gt;&lt;span style=&quot;color: #f8f8f2;&quot;&gt;&quot;&lt;/span&gt;&lt;span style=&quot;color: #f8f8f2;&quot;&gt;,&lt;/span&gt;&lt;/div&gt;&lt;div&gt;&lt;span style=&quot;color: #f8f8f2;&quot;&gt;    &lt;/span&gt;&lt;span style=&quot;color: #fede5d;&quot;&gt;author&lt;/span&gt;&lt;span style=&quot;color: #f8f8f2;&quot;&gt;: &lt;/span&gt;&lt;span style=&quot;color: #f8f8f2;&quot;&gt;&quot;&lt;/span&gt;&lt;span style=&quot;color: #50fa7b;&quot;&gt;icellusedkars&lt;/span&gt;&lt;span style=&quot;color: #f8f8f2;&quot;&gt;&quot;&lt;/span&gt;&lt;span style=&quot;color: #f8f8f2;&quot;&gt;,&lt;/span&gt;&lt;/div&gt;&lt;div&gt;&lt;span style=&quot;color: #f8f8f2;&quot;&gt;    &lt;/span&gt;&lt;span style=&quot;color: #fede5d;&quot;&gt;body&lt;/span&gt;&lt;span style=&quot;color: #f8f8f2;&quot;&gt;: &lt;/span&gt;&lt;span style=&quot;color: #f8f8f2;&quot;&gt;&quot;&lt;/span&gt;&lt;span style=&quot;color: #50fa7b;&quot;&gt;Call me Mitchell. Some years ago—never mind how long precisely—having little or no money in my purse, and nothing particular to interest me on shore, I thought I would buy a laptop about a little and see the codey part of the world. It is a way I have of driving off the spleen and regulating the circulation. Whenever I find myself growing grim about the mouth; whenever it is a damp, drizzly November in my soul; whenever I find myself involuntarily pausing before coffin warehouses, and bringing up the rear of every funeral I meet; and especially whenever my hypos get such an upper hand of me, that it requires a strong moral principle to prevent me from deliberately stepping into the street, and methodically knocking people’s hats off—then, I account it high time to get to coding as soon as I can. This is my substitute for pistol and ball. With a philosophical flourish Cato throws himself upon his sword; I quietly take to the laptop. There is nothing surprising in this. If they but knew it, almost all men in their degree, some time or other, cherish very nearly the same feelings towards the the Vaio with me.&lt;/span&gt;&lt;span style=&quot;color: #f8f8f2;&quot;&gt;&quot;&lt;/span&gt;&lt;span style=&quot;color: #f8f8f2;&quot;&gt;,&lt;/span&gt;&lt;/div&gt;&lt;div&gt;&lt;span style=&quot;color: #f8f8f2;&quot;&gt;    &lt;/span&gt;&lt;span style=&quot;color: #fede5d;&quot;&gt;created_at&lt;/span&gt;&lt;span style=&quot;color: #f8f8f2;&quot;&gt;: &lt;/span&gt;&lt;span style=&quot;color: #ff79c6;&quot;&gt;1602828180000&lt;/span&gt;&lt;span style=&quot;color: #f8f8f2;&quot;&gt;,&lt;/span&gt;&lt;/div&gt;&lt;div&gt;&lt;span style=&quot;color: #f8f8f2;&quot;&gt;    &lt;/span&gt;&lt;span style=&quot;color: #fede5d;&quot;&gt;article_img_url&lt;/span&gt;&lt;span style=&quot;color: #f8f8f2;&quot;&gt;:&lt;/span&gt;&lt;/div&gt;&lt;div&gt;&lt;span style=&quot;color: #f8f8f2;&quot;&gt;      &lt;/span&gt;&lt;span style=&quot;color: #f8f8f2;&quot;&gt;&quot;&lt;/span&gt;&lt;span style=&quot;color: #50fa7b;&quot;&gt;https://images.pexels.com/photos/158651/news-newsletter-newspaper-information-158651.jpeg?w=700&amp;amp;h=700&lt;/span&gt;&lt;span style=&quot;color: #f8f8f2;&quot;&gt;&quot;&lt;/span&gt;&lt;span style=&quot;color: #f8f8f2;&quot;&gt;,&lt;/span&gt;&lt;/div&gt;&lt;div&gt;&lt;span style=&quot;color: #f8f8f2;&quot;&gt;  },&lt;/span&gt;&lt;/div&gt;&lt;div&gt;&lt;span style=&quot;color: #f8f8f2;&quot;&gt;  {&lt;/span&gt;&lt;/div&gt;&lt;div&gt;&lt;span style=&quot;color: #f8f8f2;&quot;&gt;    &lt;/span&gt;&lt;span style=&quot;color: #fede5d;&quot;&gt;title&lt;/span&gt;&lt;span style=&quot;color: #f8f8f2;&quot;&gt;: &lt;/span&gt;&lt;span style=&quot;color: #f8f8f2;&quot;&gt;&quot;&lt;/span&gt;&lt;span style=&quot;color: #50fa7b;&quot;&gt;Eight pug gifs that remind me of mitch&lt;/span&gt;&lt;span style=&quot;color: #f8f8f2;&quot;&gt;&quot;&lt;/span&gt;&lt;span style=&quot;color: #f8f8f2;&quot;&gt;,&lt;/span&gt;&lt;/div&gt;&lt;div&gt;&lt;span style=&quot;color: #f8f8f2;&quot;&gt;    &lt;/span&gt;&lt;span style=&quot;color: #fede5d;&quot;&gt;topic&lt;/span&gt;&lt;span style=&quot;color: #f8f8f2;&quot;&gt;: &lt;/span&gt;&lt;span style=&quot;color: #f8f8f2;&quot;&gt;&quot;&lt;/span&gt;&lt;span style=&quot;color: #50fa7b;&quot;&gt;mitch&lt;/span&gt;&lt;span style=&quot;color: #f8f8f2;&quot;&gt;&quot;&lt;/span&gt;&lt;span style=&quot;color: #f8f8f2;&quot;&gt;,&lt;/span&gt;&lt;/div&gt;&lt;div&gt;&lt;span style=&quot;color: #f8f8f2;&quot;&gt;    &lt;/span&gt;&lt;span style=&quot;color: #fede5d;&quot;&gt;author&lt;/span&gt;&lt;span style=&quot;color: #f8f8f2;&quot;&gt;: &lt;/span&gt;&lt;span style=&quot;color: #f8f8f2;&quot;&gt;&quot;&lt;/span&gt;&lt;span style=&quot;color: #50fa7b;&quot;&gt;icellusedkars&lt;/span&gt;&lt;span style=&quot;color: #f8f8f2;&quot;&gt;&quot;&lt;/span&gt;&lt;span style=&quot;color: #f8f8f2;&quot;&gt;,&lt;/span&gt;&lt;/div&gt;&lt;div&gt;&lt;span style=&quot;color: #f8f8f2;&quot;&gt;    &lt;/span&gt;&lt;span style=&quot;color: #fede5d;&quot;&gt;body&lt;/span&gt;&lt;span style=&quot;color: #f8f8f2;&quot;&gt;: &lt;/span&gt;&lt;span style=&quot;color: #f8f8f2;&quot;&gt;&quot;&lt;/span&gt;&lt;span style=&quot;color: #50fa7b;&quot;&gt;some gifs&lt;/span&gt;&lt;span style=&quot;color: #f8f8f2;&quot;&gt;&quot;&lt;/span&gt;&lt;span style=&quot;color: #f8f8f2;&quot;&gt;,&lt;/span&gt;&lt;/div&gt;&lt;div&gt;&lt;span style=&quot;color: #f8f8f2;&quot;&gt;    &lt;/span&gt;&lt;span style=&quot;color: #fede5d;&quot;&gt;created_at&lt;/span&gt;&lt;span style=&quot;color: #f8f8f2;&quot;&gt;: &lt;/span&gt;&lt;span style=&quot;color: #ff79c6;&quot;&gt;1604394720000&lt;/span&gt;&lt;span style=&quot;color: #f8f8f2;&quot;&gt;,&lt;/span&gt;&lt;/div&gt;&lt;div&gt;&lt;span style=&quot;color: #f8f8f2;&quot;&gt;    &lt;/span&gt;&lt;span style=&quot;color: #fede5d;&quot;&gt;article_img_url&lt;/span&gt;&lt;span style=&quot;color: #f8f8f2;&quot;&gt;:&lt;/span&gt;&lt;/div&gt;&lt;div&gt;&lt;span style=&quot;color: #f8f8f2;&quot;&gt;      &lt;/span&gt;&lt;span style=&quot;color: #f8f8f2;&quot;&gt;&quot;&lt;/span&gt;&lt;span style=&quot;color: #50fa7b;&quot;&gt;https://images.pexels.com/photos/158651/news-newsletter-newspaper-information-158651.jpeg?w=700&amp;amp;h=700&lt;/span&gt;&lt;span style=&quot;color: #f8f8f2;&quot;&gt;&quot;&lt;/span&gt;&lt;span style=&quot;color: #f8f8f2;&quot;&gt;,&lt;/span&gt;&lt;/div&gt;&lt;div&gt;&lt;span style=&quot;color: #f8f8f2;&quot;&gt;  },&lt;/span&gt;&lt;/div&gt;&lt;div&gt;&lt;span style=&quot;color: #f8f8f2;&quot;&gt;  {&lt;/span&gt;&lt;/div&gt;&lt;div&gt;&lt;span style=&quot;color: #f8f8f2;&quot;&gt;    &lt;/span&gt;&lt;span style=&quot;color: #fede5d;&quot;&gt;title&lt;/span&gt;&lt;span style=&quot;color: #f8f8f2;&quot;&gt;: &lt;/span&gt;&lt;span style=&quot;color: #f8f8f2;&quot;&gt;&quot;&lt;/span&gt;&lt;span style=&quot;color: #50fa7b;&quot;&gt;Student SUES Mitch!&lt;/span&gt;&lt;span style=&quot;color: #f8f8f2;&quot;&gt;&quot;&lt;/span&gt;&lt;span style=&quot;color: #f8f8f2;&quot;&gt;,&lt;/span&gt;&lt;/div&gt;&lt;div&gt;&lt;span style=&quot;color: #f8f8f2;&quot;&gt;    &lt;/span&gt;&lt;span style=&quot;color: #fede5d;&quot;&gt;topic&lt;/span&gt;&lt;span style=&quot;color: #f8f8f2;&quot;&gt;: &lt;/span&gt;&lt;span style=&quot;color: #f8f8f2;&quot;&gt;&quot;&lt;/span&gt;&lt;span style=&quot;color: #50fa7b;&quot;&gt;mitch&lt;/span&gt;&lt;span style=&quot;color: #f8f8f2;&quot;&gt;&quot;&lt;/span&gt;&lt;span style=&quot;color: #f8f8f2;&quot;&gt;,&lt;/span&gt;&lt;/div&gt;&lt;div&gt;&lt;span style=&quot;color: #f8f8f2;&quot;&gt;    &lt;/span&gt;&lt;span style=&quot;color: #fede5d;&quot;&gt;author&lt;/span&gt;&lt;span style=&quot;color: #f8f8f2;&quot;&gt;: &lt;/span&gt;&lt;span style=&quot;color: #f8f8f2;&quot;&gt;&quot;&lt;/span&gt;&lt;span style=&quot;color: #50fa7b;&quot;&gt;rogersop&lt;/span&gt;&lt;span style=&quot;color: #f8f8f2;&quot;&gt;&quot;&lt;/span&gt;&lt;span style=&quot;color: #f8f8f2;&quot;&gt;,&lt;/span&gt;&lt;/div&gt;&lt;div&gt;&lt;span style=&quot;color: #f8f8f2;&quot;&gt;    &lt;/span&gt;&lt;span style=&quot;color: #fede5d;&quot;&gt;body&lt;/span&gt;&lt;span style=&quot;color: #f8f8f2;&quot;&gt;: &lt;/span&gt;&lt;span style=&quot;color: #f8f8f2;&quot;&gt;&quot;&lt;/span&gt;&lt;span style=&quot;color: #50fa7b;&quot;&gt;We all love Mitch and his wonderful, unique typing style. However, the volume of his typing has ALLEGEDLY burst another students eardrums, and they are now suing for damages&lt;/span&gt;&lt;span style=&quot;color: #f8f8f2;&quot;&gt;&quot;&lt;/span&gt;&lt;span style=&quot;color: #f8f8f2;&quot;&gt;,&lt;/span&gt;&lt;/div&gt;&lt;div&gt;&lt;span style=&quot;color: #f8f8f2;&quot;&gt;    &lt;/span&gt;&lt;span style=&quot;color: #fede5d;&quot;&gt;created_at&lt;/span&gt;&lt;span style=&quot;color: #f8f8f2;&quot;&gt;: &lt;/span&gt;&lt;span style=&quot;color: #ff79c6;&quot;&gt;1588731240000&lt;/span&gt;&lt;span style=&quot;color: #f8f8f2;&quot;&gt;,&lt;/span&gt;&lt;/div&gt;&lt;div&gt;&lt;span style=&quot;color: #f8f8f2;&quot;&gt;    &lt;/span&gt;&lt;span style=&quot;color: #fede5d;&quot;&gt;article_img_url&lt;/span&gt;&lt;span style=&quot;color: #f8f8f2;&quot;&gt;:&lt;/span&gt;&lt;/div&gt;&lt;div&gt;&lt;span style=&quot;color: #f8f8f2;&quot;&gt;      &lt;/span&gt;&lt;span style=&quot;color: #f8f8f2;&quot;&gt;&quot;&lt;/span&gt;&lt;span style=&quot;color: #50fa7b;&quot;&gt;https://images.pexels.com/photos/158651/news-newsletter-newspaper-information-158651.jpeg?w=700&amp;amp;h=700&lt;/span&gt;&lt;span style=&quot;color: #f8f8f2;&quot;&gt;&quot;&lt;/span&gt;&lt;span style=&quot;color: #f8f8f2;&quot;&gt;,&lt;/span&gt;&lt;/div&gt;&lt;div&gt;&lt;span style=&quot;color: #f8f8f2;&quot;&gt;  },&lt;/span&gt;&lt;/div&gt;&lt;/div&gt;" style="text;whiteSpace=wrap;html=1;" vertex="1" parent="1">
                    <mxGeometry x="250" y="340" width="560" height="1200" as="geometry"/>
                </mxCell>
            </root>
        </mxGraphModel>
    </diagram>
</mxfile>